# 3ds Max Wavefront OBJ Exporter v0.97b - (c)2007 guruware
# File Created: 07.02.2024 18:38:39

#
# object Plane001
#

v  -12.0248 0.0000 12.0248
v  -6.0124 0.0000 12.0248
v  -6.0124 0.0000 6.0124
v  -12.0248 0.0000 6.0124
v  0.0000 0.0000 12.0248
v  0.0000 0.0000 6.0124
v  6.0124 0.0000 12.0248
v  6.0124 0.0000 6.0124
v  12.0248 0.0000 12.0248
v  12.0248 0.0000 6.0124
v  -6.0124 0.0000 0.0000
v  -12.0248 0.0000 0.0000
v  0.0000 0.0000 0.0000
v  6.0124 0.0000 0.0000
v  12.0248 0.0000 0.0000
v  -6.0124 -0.0000 -6.0124
v  -12.0248 -0.0000 -6.0124
v  0.0000 -0.0000 -6.0124
v  6.0124 -0.0000 -6.0124
v  12.0248 -0.0000 -6.0124
v  -6.0124 -0.0000 -12.0248
v  -12.0248 -0.0000 -12.0248
v  0.0000 -0.0000 -12.0248
v  6.0124 -0.0000 -12.0248
v  12.0248 -0.0000 -12.0248
# 25 vertices

vn 0.0000 1.0000 -0.0000
vn 0.0000 1.0000 -0.0000
vn 0.0000 1.0000 -0.0000
vn 0.0000 1.0000 -0.0000
vn 0.0000 1.0000 -0.0000
vn 0.0000 1.0000 -0.0000
vn 0.0000 1.0000 -0.0000
vn 0.0000 1.0000 -0.0000
vn 0.0000 1.0000 -0.0000
vn 0.0000 1.0000 -0.0000
vn 0.0000 1.0000 -0.0000
vn 0.0000 1.0000 -0.0000
vn 0.0000 1.0000 -0.0000
vn 0.0000 1.0000 -0.0000
vn 0.0000 1.0000 -0.0000
vn 0.0000 1.0000 -0.0000
vn 0.0000 1.0000 -0.0000
vn 0.0000 1.0000 -0.0000
vn 0.0000 1.0000 -0.0000
vn 0.0000 1.0000 -0.0000
vn 0.0000 1.0000 -0.0000
vn 0.0000 1.0000 -0.0000
vn 0.0000 1.0000 -0.0000
vn 0.0000 1.0000 -0.0000
vn 0.0000 1.0000 -0.0000
vn 0.0000 1.0000 -0.0000
vn 0.0000 1.0000 -0.0000
vn 0.0000 1.0000 -0.0000
vn 0.0000 1.0000 -0.0000
vn 0.0000 1.0000 -0.0000
vn 0.0000 1.0000 -0.0000
vn 0.0000 1.0000 -0.0000
vn 0.0000 1.0000 -0.0000
vn 0.0000 1.0000 -0.0000
vn 0.0000 1.0000 -0.0000
vn 0.0000 1.0000 -0.0000
vn 0.0000 1.0000 -0.0000
vn 0.0000 1.0000 -0.0000
vn 0.0000 1.0000 -0.0000
vn 0.0000 1.0000 -0.0000
vn 0.0000 1.0000 -0.0000
vn 0.0000 1.0000 -0.0000
vn 0.0000 1.0000 -0.0000
vn 0.0000 1.0000 -0.0000
vn 0.0000 1.0000 -0.0000
vn 0.0000 1.0000 -0.0000
vn 0.0000 1.0000 -0.0000
vn 0.0000 1.0000 -0.0000
vn 0.0000 1.0000 -0.0000
vn 0.0000 1.0000 -0.0000
vn 0.0000 1.0000 -0.0000
vn 0.0000 1.0000 -0.0000
vn 0.0000 1.0000 -0.0000
vn 0.0000 1.0000 -0.0000
vn 0.0000 1.0000 -0.0000
vn 0.0000 1.0000 -0.0000
vn 0.0000 1.0000 -0.0000
vn 0.0000 1.0000 -0.0000
vn 0.0000 1.0000 -0.0000
vn 0.0000 1.0000 -0.0000
vn 0.0000 1.0000 -0.0000
vn 0.0000 1.0000 -0.0000
vn 0.0000 1.0000 -0.0000
vn 0.0000 1.0000 -0.0000
vn 0.0000 1.0000 -0.0000
vn 0.0000 1.0000 -0.0000
vn 0.0000 1.0000 -0.0000
vn 0.0000 1.0000 -0.0000
vn 0.0000 1.0000 -0.0000
vn 0.0000 1.0000 -0.0000
vn 0.0000 1.0000 -0.0000
vn 0.0000 1.0000 -0.0000
vn 0.0000 1.0000 -0.0000
vn 0.0000 1.0000 -0.0000
vn 0.0000 1.0000 -0.0000
vn 0.0000 1.0000 -0.0000
vn 0.0000 1.0000 -0.0000
vn 0.0000 1.0000 -0.0000
vn 0.0000 1.0000 -0.0000
vn 0.0000 1.0000 -0.0000
vn 0.0000 1.0000 -0.0000
vn 0.0000 1.0000 -0.0000
vn 0.0000 1.0000 -0.0000
vn 0.0000 1.0000 -0.0000
vn 0.0000 1.0000 -0.0000
vn 0.0000 1.0000 -0.0000
vn 0.0000 1.0000 -0.0000
vn 0.0000 1.0000 -0.0000
vn 0.0000 1.0000 -0.0000
vn 0.0000 1.0000 -0.0000
vn 0.0000 1.0000 -0.0000
vn 0.0000 1.0000 -0.0000
vn 0.0000 1.0000 -0.0000
vn 0.0000 1.0000 -0.0000
vn 0.0000 1.0000 -0.0000
vn 0.0000 1.0000 -0.0000
# 96 vertex normals

vt 2.0000 0.0000 1.0000
vt 2.0000 0.5000 1.0000
vt 2.0000 1.0000 1.0000
vt 2.0000 1.5000 1.0000
vt 0.0000 2.0000 1.0000
vt 0.5000 2.0000 1.0000
vt 1.0000 2.0000 1.0000
vt 1.5000 2.0000 1.0000
vt 0.0000 0.5000 1.0000
vt 0.0000 0.0000 1.0000
vt 0.5000 0.5000 1.0000
vt 0.5000 0.0000 1.0000
vt 0.5000 0.5000 1.0000
vt 0.5000 0.0000 1.0000
vt 1.0000 0.5000 1.0000
vt 1.0000 0.0000 1.0000
vt 1.0000 0.5000 1.0000
vt 1.0000 0.0000 1.0000
vt 1.5000 0.5000 1.0000
vt 1.5000 0.0000 1.0000
vt 1.5000 0.5000 1.0000
vt 1.5000 0.0000 1.0000
vt 2.0000 0.5000 1.0000
vt 0.0000 1.0000 1.0000
vt 0.0000 0.5000 1.0000
vt 0.5000 1.0000 1.0000
vt 0.5000 0.5000 1.0000
vt 0.5000 1.0000 1.0000
vt 0.5000 0.5000 1.0000
vt 1.0000 1.0000 1.0000
vt 1.0000 0.5000 1.0000
vt 1.0000 1.0000 1.0000
vt 1.0000 0.5000 1.0000
vt 1.5000 1.0000 1.0000
vt 1.5000 0.5000 1.0000
vt 1.5000 1.0000 1.0000
vt 1.5000 0.5000 1.0000
vt 2.0000 1.0000 1.0000
vt 0.0000 1.5000 1.0000
vt 0.0000 1.0000 1.0000
vt 0.5000 1.5000 1.0000
vt 0.5000 1.0000 1.0000
vt 0.5000 1.5000 1.0000
vt 0.5000 1.0000 1.0000
vt 1.0000 1.5000 1.0000
vt 1.0000 1.0000 1.0000
vt 1.0000 1.5000 1.0000
vt 1.0000 1.0000 1.0000
vt 1.5000 1.5000 1.0000
vt 1.5000 1.0000 1.0000
vt 1.5000 1.5000 1.0000
vt 1.5000 1.0000 1.0000
vt 2.0000 1.5000 1.0000
vt 0.0000 1.5000 1.0000
vt 0.5000 2.0000 1.0000
vt 0.5000 1.5000 1.0000
vt 0.5000 1.5000 1.0000
vt 1.0000 2.0000 1.0000
vt 1.0000 1.5000 1.0000
vt 1.0000 1.5000 1.0000
vt 1.5000 2.0000 1.0000
vt 1.5000 1.5000 1.0000
vt 1.5000 1.5000 1.0000
vt 2.0000 2.0000 1.0000
# 64 texture coords

g Plane001
f 1/10/1 2/12/2 3/11/3 
f 3/11/4 4/9/5 1/10/6 
f 2/14/7 5/16/8 6/15/9 
f 6/15/10 3/13/11 2/14/12 
f 5/18/13 7/20/14 8/19/15 
f 8/19/16 6/17/17 5/18/18 
f 7/22/19 9/1/20 10/23/21 
f 10/23/22 8/21/23 7/22/24 
f 4/25/25 3/27/26 11/26/27 
f 11/26/28 12/24/29 4/25/30 
f 3/29/31 6/31/32 13/30/33 
f 13/30/34 11/28/35 3/29/36 
f 6/33/37 8/35/38 14/34/39 
f 14/34/40 13/32/41 6/33/42 
f 8/37/43 10/2/44 15/38/45 
f 15/38/46 14/36/47 8/37/48 
f 12/40/49 11/42/50 16/41/51 
f 16/41/52 17/39/53 12/40/54 
f 11/44/55 13/46/56 18/45/57 
f 18/45/58 16/43/59 11/44/60 
f 13/48/61 14/50/62 19/49/63 
f 19/49/64 18/47/65 13/48/66 
f 14/52/67 15/3/68 20/53/69 
f 20/53/70 19/51/71 14/52/72 
f 17/54/73 16/56/74 21/55/75 
f 21/55/76 22/5/77 17/54/78 
f 16/57/79 18/59/80 23/58/81 
f 23/58/82 21/6/83 16/57/84 
f 18/60/85 19/62/86 24/61/87 
f 24/61/88 23/7/89 18/60/90 
f 19/63/91 20/4/92 25/64/93 
f 25/64/94 24/8/95 19/63/96 
# 32 faces

